<?xml version="1.0" encoding="UTF-8"?>
<svg xmlns="http://www.w3.org/2000/svg" xmlns:xlink="http://www.w3.org/1999/xlink" width="3750" height="2250" viewBox="0 0 3750 2250">

<path fill-rule="nonzero" fill="rgb(100%, 71.289062%, 63.867188%)" fill-opacity="1" d="M 0 720.898438 L 0 1809.917969 C 140.515625 1798.71875 276.257812 1754.109375 415.886719 1734.765625 C 485.699219 1725.097656 556.886719 1721.800781 626.585938 1732.269531 C 696.28125 1742.742188 764.648438 1767.464844 820.910156 1809.917969 C 901.308594 1870.578125 952.148438 1963.492188 982.179688 2059.621094 C 1001.570312 2121.6875 1013.160156 2185.683594 1023.28125 2250 L 1747.808594 2250 C 1728.738281 2191.222656 1701.808594 2134.691406 1669.828125 2081.78125 C 1609.359375 1981.699219 1531.5 1893.320312 1451.160156 1808.363281 C 1274.769531 1621.851562 1084.441406 1449.160156 896.148438 1274.664062 C 775.464844 1162.820312 655.144531 1049.828125 521.960938 953.210938 C 388.777344 856.578125 241.480469 776.191406 81.703125 736.878906 C 54.800781 730.261719 27.496094 724.980469 0 720.898438 Z M 0 720.898438 "/>
<path fill-rule="nonzero" fill="rgb(41.184998%, 70.117188%, 71.289062%)" fill-opacity="1" d="M 0 1420.066406 L 0 929.601562 C 28.972656 942.730469 58.304688 954.941406 88.539062 964.839844 C 158.542969 987.769531 234.902344 998.089844 305.921875 978.539062 C 369.515625 961.039062 424.589844 920.878906 472.710938 875.769531 C 520.832031 830.660156 563.492188 779.960938 612.082031 735.359375 C 672.992188 679.449219 743.472656 633.25 821.054688 604.640625 C 898.636719 576.039062 983.476562 565.449219 1065 579.300781 C 1146.511719 593.148438 1224.378906 632.121094 1280.660156 692.691406 C 1336.960938 753.261719 1370.46875 835.679688 1367.410156 918.308594 C 1364.46875 997.820312 1328.28125 1074.148438 1274.621094 1132.890625 C 1220.960938 1191.628906 1150.730469 1233.621094 1076.269531 1261.640625 C 927.335938 1317.675781 764.527344 1319.226562 606.488281 1337.734375 C 460.898438 1354.78125 317.40625 1386.671875 172.046875 1405.605469 C 115.09375 1413.027344 57.523438 1418.359375 0 1420.066406 Z M 0 1420.066406 "/>
<path fill-rule="nonzero" fill="rgb(100%, 71.289062%, 63.867188%)" fill-opacity="1" d="M 2234.660156 0 C 2240.628906 71.71875 2259.171875 142.371094 2290.148438 207.429688 C 2359.890625 353.851562 2491.320312 469.339844 2645.5 519.660156 C 2759.878906 556.988281 2881.730469 558.960938 3000.671875 558.089844 C 3119.589844 557.21875 3239.25 554 3353.75 580.570312 C 3497.871094 614.011719 3629.480469 694.679688 3732.421875 801.421875 C 3738.378906 807.609375 3744.230469 813.890625 3750 820.238281 L 3750 798.269531 C 3747.730469 795.859375 3745.519531 793.398438 3743.21875 791.019531 C 3638.46875 682.390625 3504.480469 600.140625 3357.140625 565.949219 C 3240.148438 538.808594 3119.269531 542.230469 3000.558594 543.089844 C 2881.871094 543.960938 2761.691406 541.800781 2650.160156 505.398438 C 2500.03125 456.390625 2371.609375 343.558594 2303.699219 200.980469 C 2273.710938 138.019531 2255.710938 69.53125 2249.769531 0 Z M 2234.660156 0 "/>
<path fill-rule="nonzero" fill="rgb(100%, 71.289062%, 63.867188%)" fill-opacity="1" d="M 2767.191406 0 C 2841.269531 102.089844 2947.539062 180.820312 3067.628906 220.019531 C 3182.011719 257.351562 3303.859375 259.320312 3422.800781 258.449219 C 3532.78125 257.640625 3643.410156 254.871094 3750 275.480469 L 3750 260.230469 C 3642.179688 239.78125 3531.53125 242.660156 3422.691406 243.449219 C 3304 244.320312 3183.820312 242.160156 3072.289062 205.75 C 2958.839844 168.730469 2857.808594 95.21875 2785.890625 0 Z M 2767.191406 0 "/>
<path fill-rule="nonzero" fill="rgb(97.65625%, 83.201599%, 66.601562%)" fill-opacity="1" d="M 3750 1172.078125 C 3724.710938 1183.53125 3699.800781 1195.828125 3675.421875 1209.058594 C 3466.21875 1322.550781 3295.070312 1495.199219 3143.628906 1678.8125 C 3101.011719 1730.492188 3059.53125 1783.40625 3011.261719 1829.855469 C 2962.980469 1876.304688 2907.160156 1916.464844 2843.601562 1937.601562 C 2771.390625 1961.609375 2693.609375 1959.917969 2617.519531 1960.933594 C 2541.441406 1961.953125 2462.671875 1966.632812 2395.058594 2001.546875 C 2319.398438 2040.617188 2265.28125 2115.734375 2243.929688 2198.171875 C 2239.519531 2215.21875 2236.5 2232.546875 2234.660156 2250 L 3750 2250 Z M 3750 1172.078125 "/>
<path fill-rule="nonzero" fill="rgb(41.184998%, 70.117188%, 71.289062%)" fill-opacity="1" d="M 3555.480469 1112.171875 C 3581.449219 1120.011719 3605.179688 1134.789062 3624.308594 1154.019531 C 3643.429688 1173.25 3657.988281 1196.859375 3667.421875 1222.300781 C 3686.269531 1273.160156 3684.28125 1330.296875 3668.328125 1382.144531 C 3652.378906 1433.992188 3623.171875 1480.964844 3588.949219 1523.050781 C 3554.71875 1565.140625 3515.410156 1602.753906 3476.570312 1640.625 C 3424.839844 1691.066406 3373.460938 1742.429688 3314.441406 1784.117188 C 3255.441406 1825.800781 3187.710938 1857.746094 3115.75 1864.261719 C 3079.769531 1867.523438 3043.070312 1864.3125 3008.660156 1853.304688 C 2974.25 1842.300781 2942.199219 1823.378906 2917.070312 1797.433594 C 2891.929688 1771.488281 2873.890625 1738.4375 2867.210938 1702.9375 C 2860.519531 1667.4375 2865.46875 1629.597656 2882.441406 1597.707031 C 2905.140625 1555.058594 2946.871094 1525.90625 2989.699219 1503.566406 C 3032.539062 1481.222656 3078.230469 1463.855469 3117.941406 1436.328125 C 3196.808594 1381.640625 3243.960938 1293.125 3306.078125 1219.960938 C 3337.140625 1183.378906 3372.96875 1149.859375 3415.878906 1128.359375 C 3458.789062 1106.871094 3509.539062 1098.300781 3555.480469 1112.171875 Z M 3555.480469 1112.171875 "/>
<path fill-rule="nonzero" fill="rgb(97.65625%, 83.201599%, 66.601562%)" fill-opacity="1" d="M 0 0 L 0 291.730469 C 17.007812 280.609375 34.371094 270.039062 52.261719 260.328125 C 122.945312 221.960938 203.957031 197.160156 283.648438 207.980469 C 335.480469 215.03125 384.164062 236.679688 430.464844 261.019531 C 476.761719 285.359375 521.660156 312.679688 570.082031 332.460938 C 654.320312 366.871094 748.070312 377.289062 837.960938 363.148438 C 927.851562 349.019531 1013.660156 310.460938 1084.511719 253.359375 C 1155.359375 196.261719 1211.148438 120.820312 1245.878906 36.710938 C 1250.859375 24.640625 1255.359375 12.390625 1259.480469 0 Z M 0 0 "/>
</svg>
