<?xml version="1.0" encoding="utf-8"?>
<!-- Generator: Adobe Illustrator 27.5.0, SVG Export Plug-In . SVG Version: 6.00 Build 0)  -->
<svg version="1.1" xmlns="http://www.w3.org/2000/svg" xmlns:xlink="http://www.w3.org/1999/xlink" x="0px" y="0px"
	 viewBox="0 0 750 500" style="enable-background:new 0 0 750 500;" xml:space="preserve">
<g id="BACKGROUND">
	<rect style="fill:#FBF3EF;" width="750" height="500"/>
</g>
<g id="OBJECTS">
	<g>
		<defs>
			<rect id="SVGID_1_" width="750" height="500"/>
		</defs>
		<clipPath id="SVGID_00000075881077217412545940000002825011073504541354_">
			<use xlink:href="#SVGID_1_"  style="overflow:visible;"/>
		</clipPath>
		<g style="clip-path:url(#SVGID_00000075881077217412545940000002825011073504541354_);">
			<path style="fill:#4D4DE9;" d="M323.316,7.52c-22.009,47.857-8.47,132.886,79.62,151.52s221.921-33.881,260.884,8.47
				c38.963,42.351-32.187,179.569,6.776,279.518c38.963,99.949,189.734,79.62,225.309,42.351
				c35.575-37.269,159.241-194.816-35.575-508.215S347.033-44.051,323.316,7.52z"/>
			<g>
				<path style="fill:#E8A2D3;" d="M415.538,8.795c-17.531,22.733-25.267,52.614-22.166,81.054
					c1.802,17.107,8.079,33.742,18.061,47.749c40.105,55.683,126.366,58.588,188.985,67.236c30.841,4.38,84.039,8.872,104.75,33.84
					c13.621,16.375,8.941,39.505,3.675,58.277c-21.87,70.249-65.192,137.357-59.342,213.449
					c4.63,68.838,68.589,104.82,131.267,111.386c23.911,2.38,53.444,1.977,74.908-9.711c16.912-10.569,32.227-23.674,45.879-38.184
					c39.356-41.671,63.701-95.882,74.373-151.86c18.239-96.149,1.589-195.399-25.985-288.175
					c-3.924-12.781-8.674-28.427-13.336-40.865c-1.436-3.543-4.036-10.49-5.459-14.011c-2.357-5.251-5.288-12.53-7.849-17.664
					c-21.135-45.219-52.605-86.771-94.949-113.966c-87.735-56.777-201.071-42.552-294.17-6.731
					c-32.082,12.43-63.317,27.463-92.078,46.422C432.654-6.521,423.057,0.092,415.538,8.795L415.538,8.795z M415.538,8.795
					c7.502-8.718,17.1-15.342,26.532-21.799c28.739-19.01,59.956-34.094,92.029-46.581c100.039-38.788,223.108-51.81,312.436,18.498
					c39.789,31.203,68.027,74.975,87.033,121.397c2.469,6.241,5.532,13.834,7.653,20.165c3.376,9.166,7.651,23.364,10.63,32.803
					c3.539,10.88,7.523,26.237,10.648,37.297c2.044,7.561,5.19,21.596,7.116,29.325c21.662,97.412,26.976,203.633-13.787,296.878
					c-12.999,28.926-30.246,56.101-52.134,79.129c-13.859,14.685-29.421,27.955-46.591,38.629
					c-12.795,7.143-27.578,9.614-41.995,10.74c-66.559,4.343-149.48-25.71-165.368-97.503
					c-13.349-69.555,21.426-135.969,46.283-198.825c8.057-21.146,17.246-43.082,16.757-66.05
					c-0.3-11.546-5.425-22.315-14.448-29.559c-17.738-14.244-42.055-18.76-63.934-22.879c-33.961-5.761-68.349-8.535-102.328-14.245
					c-33.672-5.858-68.549-13.604-96.605-34.147c-19.749-14.369-34.642-35.544-40.047-59.478
					C387.951,70.494,395.379,34.934,415.538,8.795L415.538,8.795z"/>
			</g>
			<path style="fill:#E8A2D3;" d="M55.141,248.806c35.377,40.82-0.669,65.134-12.153,93.01
				c-17.196,41.74,3.139,103.288,41.197,103.288s67.102-38.058,123.186-6.009s41.062,86.13,21.032,109.165
				c-20.03,23.035-163.247,84.127-246.373-56.085C-101.096,351.962,3.062,188.715,55.141,248.806z"/>
			<g>
				<path style="fill:#4D4DE9;" d="M71.159,180.85c10.605,25.895,6.045,44.425-15.601,62.059
					c-8.833,7.529-18.701,14.008-26.277,22.893c-14.908,17.856-21.997,41.763-20.895,64.86
					c0.968,20.214,10.205,41.754,31.834,46.268c14.183,3.519,28.826,1.869,43.351,1.762c11.676-0.162,23.568,0.786,34.653,4.751
					c22.105,8.093,40.023,25.907,50.77,46.632c17.722,35.707-4.907,69.434-31.502,92.925c-17.746,15.62-41.442,23.806-64.978,23.765
					c-61.267-0.039-108.937-47.877-131.611-101.382c-33.898-78.364-31.278-162.519,19.694-232.859
					c17.148-22.808,39.591-44.955,67.896-52.411C47.339,155.444,63.88,162.292,71.159,180.85L71.159,180.85z M71.159,180.85
					c-10.675-26.423-36.625-26.038-58.919-14.465c-60.737,33.645-93.542,109.608-92.736,177.059
					c1.019,45.832,15.183,92.987,39.629,131.74c30.937,49.167,89.005,83.474,147.227,63.349
					c21.978-7.558,39.464-24.347,52.894-42.831c13.895-19.339,18.814-42.845,7.986-64.787
					c-10.309-20.272-27.966-38.064-49.511-46.077c-10.902-3.978-22.598-4.977-34.149-4.896c-14.444,0.013-29.349,1.568-43.595-2.079
					C17.991,373.078,8.692,351.3,7.83,330.691c-0.917-23.218,6.232-47.158,21.245-65.065c7.618-8.887,17.503-15.34,26.367-22.855
					C77.126,225.209,81.67,206.697,71.159,180.85L71.159,180.85z"/>
			</g>
			<path style="fill:#EBB362;" d="M632.443,82.034c-26.934,26.934-95.866,7.049-133.93-26.786
				c-38.064-33.835-43.703-81.768-9.869-98.685c33.835-16.917,80.358-1.41,111.373,31.015
				C631.033,20.003,653.59,60.887,632.443,82.034z"/>
			<path style="fill:#E8A2D3;" d="M714.55,122.955c21.853,13.204-0.958,75.19-32.483,105.556
				c-31.525,30.367-94.572,12.038-77.502-35.298C621.637,145.879,690.418,108.374,714.55,122.955z"/>
			<path style="fill:#FBF3EF;" d="M838.355,4.994c2.79-25.835-48.987-40.485-100.546-25.618
				C686.251-5.756,645.312,57.94,672.308,81.291c26.996,23.351,77.491-13.202,101.906-18.512
				C798.629,57.469,834.113,44.272,838.355,4.994z"/>
		</g>
	</g>
	<g>
		<path style="fill:#4D4DE9;" d="M36.737,442.435c-0.287-0.313-0.734-0.352-1.134-0.426c-0.511-0.094-1.022-0.157-1.539-0.212
			c-0.489-0.052-0.987-0.072-1.486-0.069c-0.096-0.664-0.202-1.328-0.32-1.988c-0.109-0.609-0.212-1.265-0.416-1.851
			c-0.232-0.665-0.645-1.254-0.942-1.894c-0.3-0.646-1.266-0.288-1.277,0.346c-0.013,0.722-0.16,1.417-0.128,2.138
			c0.028,0.628,0.128,1.258,0.197,1.882c0.057,0.515,0.1,1.031,0.143,1.547c-0.569,0.052-1.138,0.102-1.707,0.152
			c-0.88,0.079-2.128,0.001-2.897,0.538c-0.07,0.02-0.141,0.041-0.212,0.061c-1.088,0.307-0.753,1.729,0.25,1.847
			c0.031,0.004,0.063,0.008,0.094,0.012c0.805,0.443,2.132,0.15,2.984,0.093c0.549-0.037,1.099-0.068,1.649-0.103
			c0.048,1.239,0.088,2.48,0.089,3.72c0.001,1.065,0.052,3.421,1.736,3.076c1.513-0.31,1.31-2.49,1.287-3.62
			c-0.024-1.156-0.101-2.303-0.221-3.452c0.502-0.073,0.998-0.169,1.464-0.31c0.481-0.145,0.977-0.265,1.451-0.44
			c0.376-0.139,0.764-0.269,0.991-0.61C36.884,442.735,36.841,442.548,36.737,442.435z"/>
		<path style="fill:#4D4DE9;" d="M61.817,468.109c-0.287-0.313-0.734-0.352-1.134-0.426c-0.511-0.094-1.022-0.157-1.539-0.212
			c-0.489-0.052-0.987-0.072-1.486-0.069c-0.096-0.665-0.202-1.328-0.32-1.989c-0.109-0.609-0.211-1.265-0.416-1.851
			c-0.233-0.665-0.645-1.254-0.942-1.894c-0.3-0.647-1.266-0.288-1.277,0.346c-0.014,0.722-0.16,1.417-0.128,2.138
			c0.028,0.628,0.128,1.258,0.197,1.882c0.057,0.515,0.1,1.031,0.143,1.547c-0.569,0.052-1.138,0.102-1.707,0.152
			c-0.88,0.079-2.128,0.001-2.897,0.538c-0.071,0.02-0.141,0.041-0.212,0.061c-1.088,0.307-0.753,1.729,0.25,1.847
			c0.031,0.004,0.063,0.008,0.094,0.012c0.805,0.443,2.132,0.15,2.984,0.093c0.549-0.037,1.099-0.068,1.649-0.103
			c0.048,1.239,0.088,2.48,0.089,3.72c0.001,1.065,0.051,3.421,1.736,3.076c1.513-0.31,1.31-2.49,1.287-3.62
			c-0.024-1.156-0.101-2.304-0.221-3.452c0.502-0.073,0.998-0.169,1.464-0.31c0.481-0.145,0.977-0.265,1.451-0.44
			c0.376-0.139,0.764-0.269,0.991-0.61C61.964,468.41,61.921,468.223,61.817,468.109z"/>
	</g>
	<g>
		<path style="fill:#FBF3EF;" d="M738.915,468.109c-0.287-0.313-0.734-0.352-1.134-0.426c-0.511-0.094-1.022-0.157-1.539-0.212
			c-0.489-0.052-0.987-0.072-1.486-0.069c-0.096-0.665-0.202-1.328-0.32-1.989c-0.109-0.609-0.212-1.265-0.416-1.851
			c-0.233-0.665-0.645-1.254-0.942-1.894c-0.3-0.647-1.266-0.288-1.278,0.346c-0.013,0.722-0.16,1.417-0.128,2.138
			c0.028,0.628,0.128,1.258,0.197,1.882c0.057,0.515,0.1,1.031,0.143,1.547c-0.569,0.052-1.138,0.102-1.707,0.152
			c-0.88,0.079-2.128,0.001-2.897,0.538c-0.071,0.02-0.141,0.041-0.212,0.061c-1.088,0.307-0.753,1.729,0.25,1.847
			c0.031,0.004,0.063,0.008,0.094,0.012c0.805,0.443,2.132,0.15,2.984,0.093c0.549-0.037,1.099-0.068,1.649-0.103
			c0.048,1.239,0.088,2.48,0.089,3.72c0.001,1.065,0.051,3.421,1.736,3.076c1.513-0.31,1.31-2.49,1.287-3.62
			c-0.024-1.156-0.101-2.304-0.221-3.452c0.502-0.073,0.997-0.169,1.464-0.31c0.481-0.145,0.977-0.265,1.451-0.44
			c0.376-0.139,0.764-0.269,0.991-0.61C739.063,468.41,739.019,468.223,738.915,468.109z"/>
	</g>
	<g>
		<path style="fill:#FBF3EF;" d="M738.915,443.777c-0.287-0.313-0.734-0.352-1.134-0.426c-0.511-0.094-1.022-0.157-1.539-0.212
			c-0.489-0.052-0.987-0.072-1.486-0.069c-0.096-0.665-0.202-1.328-0.32-1.989c-0.109-0.609-0.212-1.265-0.416-1.851
			c-0.233-0.665-0.645-1.254-0.942-1.894c-0.3-0.646-1.266-0.288-1.278,0.346c-0.013,0.723-0.16,1.417-0.128,2.138
			c0.028,0.628,0.128,1.258,0.197,1.882c0.057,0.515,0.1,1.031,0.143,1.547c-0.569,0.052-1.138,0.102-1.707,0.152
			c-0.88,0.078-2.128,0-2.897,0.538c-0.071,0.02-0.141,0.041-0.212,0.061c-1.088,0.307-0.753,1.729,0.25,1.847
			c0.031,0.004,0.063,0.008,0.094,0.011c0.805,0.443,2.132,0.15,2.984,0.093c0.549-0.037,1.099-0.068,1.649-0.103
			c0.048,1.239,0.088,2.48,0.089,3.72c0.001,1.065,0.051,3.421,1.736,3.076c1.513-0.31,1.31-2.49,1.287-3.62
			c-0.024-1.156-0.101-2.304-0.221-3.452c0.502-0.073,0.997-0.169,1.464-0.31c0.481-0.145,0.977-0.265,1.451-0.44
			c0.376-0.139,0.764-0.269,0.991-0.61C739.063,444.078,739.019,443.891,738.915,443.777z"/>
	</g>
	<g>
		<path style="fill:#FBF3EF;" d="M738.915,419.445c-0.287-0.313-0.734-0.352-1.134-0.426c-0.511-0.094-1.022-0.157-1.539-0.212
			c-0.489-0.052-0.987-0.072-1.486-0.069c-0.096-0.664-0.202-1.328-0.32-1.989c-0.109-0.609-0.212-1.265-0.416-1.851
			c-0.233-0.665-0.645-1.254-0.942-1.894c-0.3-0.646-1.266-0.288-1.278,0.346c-0.013,0.723-0.16,1.417-0.128,2.138
			c0.028,0.628,0.128,1.258,0.197,1.882c0.057,0.515,0.1,1.031,0.143,1.547c-0.569,0.052-1.138,0.102-1.707,0.152
			c-0.88,0.079-2.128,0-2.897,0.538c-0.071,0.02-0.141,0.041-0.212,0.061c-1.088,0.307-0.753,1.729,0.25,1.847
			c0.031,0.004,0.063,0.008,0.094,0.011c0.805,0.443,2.132,0.15,2.984,0.093c0.549-0.037,1.099-0.068,1.649-0.103
			c0.048,1.239,0.088,2.48,0.089,3.72c0.001,1.065,0.051,3.421,1.736,3.076c1.513-0.31,1.31-2.49,1.287-3.62
			c-0.024-1.156-0.101-2.303-0.221-3.452c0.502-0.073,0.997-0.169,1.464-0.31c0.481-0.145,0.977-0.265,1.451-0.44
			c0.376-0.139,0.764-0.269,0.991-0.61C739.063,419.745,739.019,419.558,738.915,419.445z"/>
	</g>
	<g>
		<path style="fill:#FBF3EF;" d="M738.915,395.113c-0.287-0.313-0.734-0.352-1.134-0.426c-0.511-0.094-1.022-0.157-1.539-0.212
			c-0.489-0.052-0.987-0.072-1.486-0.069c-0.096-0.664-0.202-1.328-0.32-1.989c-0.109-0.609-0.212-1.265-0.416-1.851
			c-0.233-0.665-0.645-1.254-0.942-1.894c-0.3-0.646-1.266-0.288-1.278,0.346c-0.013,0.722-0.16,1.417-0.128,2.138
			c0.028,0.628,0.128,1.258,0.197,1.882c0.057,0.515,0.1,1.031,0.143,1.547c-0.569,0.052-1.138,0.102-1.707,0.152
			c-0.88,0.079-2.128,0.001-2.897,0.538c-0.071,0.02-0.141,0.041-0.212,0.061c-1.088,0.307-0.753,1.729,0.25,1.847
			c0.031,0.004,0.063,0.008,0.094,0.012c0.805,0.443,2.132,0.15,2.984,0.093c0.549-0.037,1.099-0.068,1.649-0.103
			c0.048,1.239,0.088,2.48,0.089,3.72c0.001,1.065,0.051,3.421,1.736,3.076c1.513-0.31,1.31-2.49,1.287-3.62
			c-0.024-1.156-0.101-2.304-0.221-3.452c0.502-0.073,0.997-0.169,1.464-0.31c0.481-0.145,0.977-0.265,1.451-0.44
			c0.376-0.139,0.764-0.269,0.991-0.61C739.063,395.413,739.019,395.226,738.915,395.113z"/>
	</g>
</g>
</svg>
